<?xml version="1.0" encoding="utf-8"?>
<!-- Generator: Adobe Illustrator 19.2.1, SVG Export Plug-In . SVG Version: 6.00 Build 0)  -->
<svg version="1.1" id="Layer_1" xmlns="http://www.w3.org/2000/svg" xmlns:xlink="http://www.w3.org/1999/xlink" x="0px" y="0px"
	 viewBox="0 0 1470.8 1810" style="enable-background:new 0 0 1470.8 1810;" xml:space="preserve">
<style type="text/css">
	.st0{display:none;}
	.st1{display:inline;}
	.st2{display:inline;clip-path:url(#SVGID_2_);}
	.st3{fill:#AF1717;}
	.st4{fill:none;stroke:#000000;stroke-width:10.02;stroke-miterlimit:10;}
</style>
<title>bottleRed</title>
<path d="M752.6,1804.9c-165.3,1.8-232.6-39.6-234-165.8l-6.8-686.5c-13.5-124.9,78.8-150.6,86.4-230.7
	c4.8-186.2,21.1-372.8,58-560.3c-31.9-27.4,0.7-26-1.3-57.2c-14.5-1.3-16.6-9.9-7.1-25.5c-11.7-3.4-15.6,3.5-10.9-27.1
	C625.7,3.2,695.1,8.1,752.6,5 M752.5,1804.9c165.3,1.8,232.6-39.6,234-165.8l6.8-686.5c13.5-125-78.9-150.5-86.4-230.7
	c-4.8-186.1-21.1-372.8-58-560.3c31.9-27.4-0.7-26,1.3-57.2c14.5-1.3,16.6-9.9,7.1-25.5c11.7-3.4,15.7,3.5,10.8-27.1
	C879.4,3.2,810,8.1,752.5,5"/>
<g class="st0">
	<defs>
		<path id="SVGID_1_" d="M752.6,1804.9c-165.3,1.8-232.6-39.6-234-165.8l-6.8-686.5c-13.5-124.9,78.8-150.6,86.4-230.7
			c4.8-186.2,21.1-372.8,58-560.3c-31.9-27.4,0.7-26-1.3-57.2c-14.5-1.3-16.6-9.9-7.1-25.5c-11.7-3.4-15.6,3.5-10.9-27.1
			C625.7,3.2,695.1,8.1,752.6,5 M752.5,1804.9c165.3,1.8,232.6-39.6,234-165.8l6.8-686.5c13.5-125-78.9-150.5-86.4-230.7
			c-4.8-186.1-21.1-372.8-58-560.3c31.9-27.4-0.7-26,1.3-57.2c14.5-1.3,16.6-9.9,7.1-25.5c11.7-3.4,15.7,3.5,10.8-27.1
			C879.4,3.2,810,8.1,752.5,5"/>
	</defs>
	<clipPath id="SVGID_2_" class="st1">
		<use xlink:href="#SVGID_1_"  style="overflow:visible;"/>
	</clipPath>
	<g class="st2">
		
			<rect x="-4.9" y="361.1" transform="matrix(0.866 -0.5 0.5 0.866 -176.3356 404.7777)" class="st3" width="1344.1" height="340.6"/>
		<rect x="98.5" y="960.6" transform="matrix(0.866 -0.5 0.5 0.866 -495.332 545.6562)" class="st3" width="1344.1" height="473"/>
	</g>
</g>
<path class="st4" d="M752.6,1804.9c-165.3,1.8-232.6-39.6-234-165.8l-6.8-686.5c-13.5-124.9,78.8-150.6,86.4-230.7
	c4.8-186.2,21.1-372.8,58-560.3c-31.9-27.4,0.7-26-1.3-57.2c-14.5-1.3-16.6-9.9-7.1-25.5c-11.7-3.4-15.6,3.5-10.9-27.1
	C625.7,3.2,695.1,8.1,752.6,5 M752.5,1804.9c165.3,1.8,232.6-39.6,234-165.8l6.8-686.5c13.5-125-78.9-150.5-86.4-230.7
	c-4.8-186.1-21.1-372.8-58-560.3c31.9-27.4-0.7-26,1.3-57.2c14.5-1.3,16.6-9.9,7.1-25.5c11.7-3.4,15.7,3.5,10.8-27.1
	C879.4,3.2,810,8.1,752.5,5"/>
</svg>
