<svg id="Layer_1" data-name="Layer 1" xmlns="http://www.w3.org/2000/svg" xmlns:xlink="http://www.w3.org/1999/xlink" viewBox="0 0 1470.8 1809.96"><defs><style>.cls-1{fill:#fff;}.cls-2{clip-path:url(#clip-path);}.cls-3{fill:#af1717;}.cls-4{fill:none;stroke:#000;stroke-miterlimit:10;stroke-width:10.02px;}</style><clipPath id="clip-path" transform="translate(188.6 -84.05)"><path class="cls-1" d="M564,1888.94c-165.3,1.8-232.6-39.59-234-165.85l-6.82-686.51C309.66,911.64,402,886,409.56,805.89c4.82-186.15,21.06-372.79,58-560.31-31.86-27.41.7-26-1.25-57.19-14.51-1.27-16.62-9.91-7.1-25.46-11.71-3.45-15.65,3.48-10.85-27.13C437.09,87.27,506.54,92.12,564,89.05m-0.09,1799.89c165.3,1.8,232.6-39.59,234-165.85l6.82-686.51c13.5-124.95-78.89-150.55-86.4-230.69-4.82-186.15-21.06-372.79-58-560.31,31.86-27.41-.7-26,1.25-57.19,14.51-1.27,16.62-9.91,7.1-25.46,11.71-3.45,15.65,3.48,10.85-27.13,11.29-48.53-58.16-43.68-115.62-46.75"/></clipPath></defs><title>bottleRed</title><path class="cls-1" d="M564,1888.94c-165.3,1.8-232.6-39.59-234-165.85l-6.82-686.51C309.66,911.64,402,886,409.56,805.89c4.82-186.15,21.06-372.79,58-560.31-31.86-27.41.7-26-1.25-57.19-14.51-1.27-16.62-9.91-7.1-25.46-11.71-3.45-15.65,3.48-10.85-27.13C437.09,87.27,506.54,92.12,564,89.05m-0.09,1799.89c165.3,1.8,232.6-39.59,234-165.85l6.82-686.51c13.5-124.95-78.89-150.55-86.4-230.69-4.82-186.15-21.06-372.79-58-560.31,31.86-27.41-.7-26,1.25-57.19,14.51-1.27,16.62-9.91,7.1-25.46,11.71-3.45,15.65,3.48,10.85-27.13,11.29-48.53-58.16-43.68-115.62-46.75" transform="translate(188.6 -84.05)"/><g class="cls-2"><rect class="cls-3" x="-193.48" y="445.18" width="1344.08" height="340.61" transform="translate(-55.03 237.69) rotate(-30)"/><rect class="cls-3" x="-90.1" y="1044.66" width="1344.08" height="473.03" transform="translate(-374.02 378.57) rotate(-30)"/></g><path class="cls-4" d="M564,1888.94c-165.3,1.8-232.6-39.59-234-165.85l-6.82-686.51C309.66,911.64,402,886,409.56,805.89c4.82-186.15,21.06-372.79,58-560.31-31.86-27.41.7-26-1.25-57.19-14.51-1.27-16.62-9.91-7.1-25.46-11.71-3.45-15.65,3.48-10.85-27.13C437.09,87.27,506.54,92.12,564,89.05m-0.09,1799.89c165.3,1.8,232.6-39.59,234-165.85l6.82-686.51c13.5-124.95-78.89-150.55-86.4-230.69-4.82-186.15-21.06-372.79-58-560.31,31.86-27.41-.7-26,1.25-57.19,14.51-1.27,16.62-9.91,7.1-25.46,11.71-3.45,15.65,3.48,10.85-27.13,11.29-48.53-58.16-43.68-115.62-46.75" transform="translate(188.6 -84.05)"/></svg>