<svg id="MOLSON_BG" data-name="MOLSON BG" xmlns="http://www.w3.org/2000/svg" viewBox="0 0 1002.32 554.74"><defs><style>.cls-1{fill:#0e2d72;}.cls-2{fill:#295a95;}.cls-3{fill:#488cbc;}.cls-4{fill:#fdfdfd;}.cls-5{fill:#fff;}</style></defs><title>molson</title><path class="cls-1" d="M45,248.94C420.14,82.84,747,90,1047,197V554.75c-308,143.19-641.28,160.09-1002.32,40Z" transform="translate(-44.68 -119.88)"/><path class="cls-2" d="M57.45,591.18c267.32,103.34,563.72,105.77,895.09-13.1C895.63,447.9,820.14,313.72,501.93,313.72,251.26,313.72,181.51,402.43,57.45,591.18Z" transform="translate(-44.68 -119.88)"/><path class="cls-3" d="M218.52,640.27q288.89,60.49,563-11.49c-47-114.62-151.37-161.58-283.56-175.7C498,453.08,302.65,438.67,218.52,640.27Z" transform="translate(-44.68 -119.88)"/><path id="n" class="cls-4" d="M913.79,502.4c0,10.16-.15,20.33,0,30.49,0,2.33-.68,3-2.92,2.71a31.66,31.66,0,0,0-4.2.06c-7.74,0-15.48-.15-23.22,0-2.25,0-2.68-.58-2.67-2.65,0.08-27,0-53.94.06-80.91a44.27,44.27,0,0,0-.51-7.11c-1.33-8.21-4.83-15-12.94-18.8a30.43,30.43,0,0,0-10.93-2.55c-19.56-1.37-32.07,10.86-34.76,25.74-1.47,4.25-1.41,8.68-1.42,13.06q-0.09,35.11.06,70.22c0,2.52-.7,3.3-3.19,3a26.3,26.3,0,0,0-3.94.06c-7.83,0-15.65-.11-23.48-0.05-1.71,0-2.39-.21-2.39-2.13q0.09-62.61,0-125.22c0-1.69.3-2.42,2.25-2.33,3.69,0.18,8.05,2.62,11.72,2.92,8.27,3.25,7,4.13,17.66,10,4.78-3.46,9-7.15,14.2-9.45,17.47-7.72,35.4-8.81,53.59-3,15.25,4.88,22.84,16.09,25.74,30.8a82.71,82.71,0,0,1,1.29,16Q913.79,477.79,913.79,502.4Z" transform="translate(-44.68 -119.88)"/><path id="o" class="cls-4" d="M395.91,407.43a63.44,63.44,0,1,0,63.44,63.44A63.44,63.44,0,0,0,395.91,407.43Zm0,102.61c-17.94,0-32.48-17.54-32.48-39.17S378,431.7,395.91,431.7s32.48,17.54,32.48,39.17S413.85,510,395.91,510Z" transform="translate(-44.68 -119.88)"/><path id="s" class="cls-4" d="M633.76,516.73a47.5,47.5,0,0,1-10.9,9.91l-0.62.52,0-.06a91.72,91.72,0,0,1-10.06,4.48c-20.58,6.66-41.58,7-62.77,3-12.14-2.32-22.84-7.13-31-15.7-5-5.28-7.88-11.46-9.69-18.08,0-2.23-1.85-5.18-.14-6.45,1.54-1.14,4.92-.38,7.48-0.39,8.48,0,17,0,25.45,0,1.51,0,2.34.2,2.57,1.71,2,13.84,14,21.56,30.19,22.17,7.71,0.29,15.28-.27,22-4.14,10.46-5.86,10.28-18.3-.38-23.79a38.59,38.59,0,0,0-5.74-2.32c-8.59-2.78-17.68-3.68-26.55-5.37-11.18-2.13-22.12-4.87-31.85-10.4-8.42-4.78-14.53-11.16-16.91-19.94a31.87,31.87,0,0,1,3.61-25.48c8.28-11.48,21-16.63,35.47-18.87,16.81-2.6,33.59-2.33,50,2,18.89,5,30.3,17.43,31.74,33.71,0.15,1.69-.33,2.12-2.13,2-2.11-.09-4.23,0-6.35,0-7.17-.07-14.34-0.21-21.5-0.18-1.83,0-2.45-.51-2.83-2.07-1.86-7.66-6.91-13.22-15.05-16.26a40.56,40.56,0,0,0-28.17-.06c-3.45,1.2-6.47,3.07-8.27,6.11-4.48,6.76-2.17,14.3,5.66,18.05,6.23,3,13.09,4.22,20,5.41,11.91,2.07,23.86,4,35.1,8.25,8.52,3.25,16.31,7.47,21.18,14.65,7.93,11.69,8.11,23.78,1.31,36Z" transform="translate(-44.68 -119.88)"/><path id="l" class="cls-4" d="M496.83,354.22c-0.05,1.12-.15,2.24-0.15,3.36q0,87.85.06,175.71c0,4.38.35,3.62-2.82,3.71l-2.94.09c-6.1,0-12.19-.18-18.29-0.05-1.81,0-2.3-.5-2.29-3q0.1-90.53,0-181.07c0-3.39,0-6.79,0-10.18,0-1.65.39-2.08,1.56-2.07q11.67,0.09,23.34,0c1.12,0,1.45.5,1.45,2C496.73,346.49,496.8,350.36,496.83,354.22Z" transform="translate(-44.68 -119.88)"/><path id="o-2" data-name="o" class="cls-4" d="M712.51,407.43A63.44,63.44,0,1,0,776,470.87,63.44,63.44,0,0,0,712.51,407.43Zm0,102.61C694.58,510,680,492.5,680,470.87s14.54-39.17,32.48-39.17S745,449.24,745,470.87,730.45,510,712.51,510Z" transform="translate(-44.68 -119.88)"/><path class="cls-4" d="M306.74,504.1q0-24.61,0-49.22a102.8,102.8,0,0,0-1-16c-2.33-14.7-8.41-25.92-20.62-30.8-14.56-5.82-28.93-4.73-42.92,3-4.18,2.3-7.55,6-11.38,9.45-2.81-1.93-4.58-3.31-5.93-4.42a28.11,28.11,0,0,0-15.06-9.71c-14.56-5.82-28.93-4.73-42.92,3-4.18,2.3-7.55,6-11.38,9.45-2.26-8.88-7.82-12-14.66-12.71-2.94-.3-5.92,0-8.87-0.19-1.56-.09-1.81.63-1.8,2.33q0.07,62.61,0,125.22c0,1.92.54,2.14,1.91,2.13,6.27-.06,12.54,0,18.81.05a16.89,16.89,0,0,1,3.15-.06c2,0.32,2.56-.46,2.55-3q-0.15-35.11,0-70.22c0-4.38,0-8.81,1.14-13.06,2.15-14.88,12.18-27.12,27.84-25.74a20.46,20.46,0,0,1,8.75,2.55c6.5,3.8,9.3,10.6,10.37,18.8a55.1,55.1,0,0,1,.41,7.11c0,27,.3,53.94.24,80.91,0,1.09-.27,1.77.73,2.17v0c0,1.92.26,2.14,1.63,2.13,6.27-.06,12.4,0,18.67.05a16.15,16.15,0,0,1,3.08-.06c2,0.32,2.53-.46,2.52-3q-0.15-35.11-.07-70.22c0-4.38,0-8.81,1.13-13.06,2.15-14.88,12.17-27.12,27.84-25.74a20.45,20.45,0,0,1,8.75,2.55c6.5,3.8,9.3,10.6,10.37,18.8a55.09,55.09,0,0,1,.41,7.11q0,40.45,0,80.91c0,2.07.34,2.69,2.14,2.65,6.2-.13,12.4,0,18.6,0a20.33,20.33,0,0,1,3.36-.06c1.79,0.25,2.36-.38,2.34-2.71C306.62,524.42,306.71,514.26,306.74,504.1Z" transform="translate(-44.68 -119.88)"/><g id="Molson"><path class="cls-5" d="M178.46,278.85c3.86,14.76,7.08,27.24,10.41,39.69,0.79,3-.61,4-3.15,4.6-2.76.7-4.92,0.65-5.77-2.66-1.23-4.77-2.52-9.53-3.78-14.25-1,.18-1.65.1-1.87,0.38-3.18,4-3.44,11.8-8.53,12.07-4.34.23-9-4.69-14.39-7.89,1.47,5.83,2.53,10.83,4,15.69,1.13,3.69-.33,4.72-3.67,5.64s-4.38-.4-5.11-3.27c-3.14-12.28-6.4-24.53-10.12-38.74,8.29,5.32,15.15,9.25,21.46,13.92,4.77,3.54,6.83,2.19,9-2.63C170.13,294.46,173.86,287.8,178.46,278.85Z" transform="translate(-44.68 -119.88)"/><path class="cls-5" d="M225,290.77c-2.64-12.4,4.62-23.69,16.83-26.16a22.31,22.31,0,0,1,26.33,17.06c2.54,11.76-4.74,23.51-16.13,26.08C239.44,310.59,227.6,303.15,225,290.77Zm8.93-.6c1.5,6.53,8.7,10.73,15.39,9s11.45-10.14,9.76-17c-1.54-6.23-9.3-10.84-15.52-9.23S232.31,283.28,233.9,290.17Z" transform="translate(-44.68 -119.88)"/><path class="cls-5" d="M470.76,265.33c-8.55,4.38-11.91-.84-15.42-6.15-1.59-2.41-3-6.4-6.63-5.14-4,1.38-1.42,5.27-1.41,8,0,3.42.83,6.42-4.4,6.94-5.49.55-4.9-2.87-5.18-6.09q-1.39-15.76-2.77-31.52c-0.21-2.48-.75-5.15,3.22-5.21,6.08-.09,12.1-1.86,18.24-0.74,9.59,1.77,15.41,12.6,9.45,20.16-4.88,6.19-2.42,9.5,1.13,13.91A66.5,66.5,0,0,1,470.76,265.33ZM454,233.73c-2.79.16-7.31-2-8.58,2.44-0.78,2.73-2,7.95,2.55,9.11,3.39,0.86,8,.77,9.68-4C458.81,238,458,235.36,454,233.73Z" transform="translate(-44.68 -119.88)"/><path class="cls-5" d="M296.76,250.76l30.5,16.53c0.14-6.8-2.27-12.17-3.52-17.74-0.57-2.53-.6-4.37,2.55-4.81,2.33-.33,5-1.92,6,2,3.14,12.52,6.31,25,9.92,39.31a260.31,260.31,0,0,1-31.72-18c1.65,7,3,12.71,4.39,18.43,0.75,3,.9,5.2-3,6.22s-4.86-1.18-5.57-4.05C303.2,276.61,300.2,264.59,296.76,250.76Z" transform="translate(-44.68 -119.88)"/><path class="cls-5" d="M528,219.91c1.83,2.65,4.57,1.47,6.82,1.3,3.65-.27,4,1.63,4.25,4.5s-1,4-3.8,4c-3.05,0-6.11.15-9.15,0.33s-6.25-.2-6.07,4.61c0.16,4.47,2.57,4.78,6.07,4.34,2.46-.31,5,0.08,7.47-0.29,3.32-.51,3.63,1.4,3.83,3.84,0.21,2.62-.35,4.31-3.48,4.28-2.77,0-5.55.4-8.32,0.39-3.19,0-5,.49-4.84,4.6,0.19,3.79,1.36,4.84,5,4.46,3.86-.4,7.79-0.1,11.64-0.51,3-.33,4,0.84,4,3.65s-0.24,4.72-3.9,4.75c-7.21.07-14.42,0.5-21.62,1-2.88.19-4-1-4.12-3.72-0.46-11.37-.94-22.75-1.54-34.12-0.22-4.2,2.09-4.81,5.62-5.28,4.09-.54,8.78,1.83,12.27-2.13Z" transform="translate(-44.68 -119.88)"/><path class="cls-5" d="M839.65,284.39c-7,.48-13.73-1.53-17.44-8.25-3.55-6.43-2.05-12.39,4.69-16.31,2.84-1.65,1-3.88.94-5.91-0.16-5.67,2.35-9.94,7.75-11.45,6.34-1.77,12.16-.07,16.39,5.26,3.67,4.64,3.09,9.56-.79,13.58-2.32,2.4-2.36,3.87-1.26,7C852.64,275.84,848,282.91,839.65,284.39Zm-5-19.28c-3.07.77-4.81,2.71-4,6,0.91,3.64,3.77,4.6,7.13,4,3.07-.51,4.19-3,3.8-5.58C841,266,838.23,264.76,834.61,265.11Zm5.73-14.5c-2.22.39-3.42,1.83-3.22,4s1.86,3.29,4,3,3.25-1.87,3.16-4C844.2,251,842.45,250.52,840.34,250.61Z" transform="translate(-44.68 -119.88)"/><path class="cls-5" d="M906.56,257.15L894,267.34c10.24,5.49,13.13,13.71,7.73,21.52-4.78,6.92-14.87,8.26-22,2.92-7.7-5.72-8.44-15.73-1.05-23.1,4.86-4.84,10.56-8.85,16-13.11C898.54,252.49,901.8,255.71,906.56,257.15ZM890.4,285.73c3.45-1.38,4.69-3.85,3.61-7.26a5.13,5.13,0,0,0-6.47-3.68c-3.38.83-4.86,3.73-4,7S887,286.47,890.4,285.73Z" transform="translate(-44.68 -119.88)"/><path class="cls-5" d="M574.87,259.73l19.82-44.06,19.51,43.66c-4.81,1.13-8.5,2.51-11.48-3-1.88-3.44-15-3.21-17,.34C583,261.79,579.47,259.47,574.87,259.73Zm18.85-23.65c-0.69,3.81-3.59,6.37-3.12,10.56l7.72-.76C597.3,242.23,596.65,239,593.71,236.08Z" transform="translate(-44.68 -119.88)"/><path class="cls-5" d="M379.36,245.15c-3.47.67-5.91,1-8.26,1.63-2.89.78-4-.57-4.63-3.12s-0.15-4.32,2.68-5q12.92-3.11,25.82-6.29c3.14-.77,3.65,1.46,4.37,3.64,0.94,2.86-.34,4.36-3,4.55-7.5.54-8,4.31-5.85,10.55,2.22,6.53,3.15,13.48,5.07,20.12,1.17,4-.28,5.22-4,6.16-4,1-4.74-.8-5.43-3.93-1.67-7.57-3.58-15.08-5.39-22.62C380.29,249,379.85,247.17,379.36,245.15Z" transform="translate(-44.68 -119.88)"/><path class="cls-5" d="M804.12,236c-8.24,11.92-15.6,22.69-23.12,33.35-3.12,4.42-3.29,4.31-11.81,1.35l20.09-29.33c-4.08-.92-7.27-1.67-10.47-2.35-2.66-.56-4.83-1.4-4.21-4.86,0.57-3.25,2.57-4,5.44-3.36C787.59,232.38,795.14,234,804.12,236Z" transform="translate(-44.68 -119.88)"/><path class="cls-5" d="M649.85,237.83c0.86-5.21,1.86-10.39,2.53-15.62,0.47-3.66,2.55-4.53,5.75-4.22,3.59,0.34,3.53,2.64,3.19,5.4-1,7.7-1.42,15.49-2.76,23.12-0.9,5.11.58,7.2,5.65,7.4a91.23,91.23,0,0,1,9.08,1.21c2.25,0.32,3.53,1.39,3.19,3.89s-1.21,4.44-4.13,4.08c-7.16-.89-14.32-1.88-21.47-2.89-3.66-.52-3.42-3.29-3.09-5.71,0.28-4.74,1-10.73,1.95-16.21Z" transform="translate(-44.68 -119.88)"/><path class="cls-5" d="M727.94,261.75c1.21-7,2.43-13,3.22-19.09,0.56-4.31,4.55-9.59-3.55-11.92-2.09-.6-0.42-4.63.14-6.92,0.66-2.67,3-1.6,4.89-1.38,11.42,1.38,11.45,1.38,9.57,12.46-1.54,9-3.13,18.06-4.82,27.07-0.45,2.42-.9,5.12-4.73,4C729.92,265.11,726.77,265,727.94,261.75Z" transform="translate(-44.68 -119.88)"/><path class="cls-5" d="M528.15,219.86c-2.1-1.8-7.29.71-6.1-5.94,1.28-7.17,4.57-8.7,11.28-7.23,0.13,5.08-4.91,8.32-5.28,13.22Z" transform="translate(-44.68 -119.88)"/></g></svg>